<?xml version="1.0" encoding="utf-8"?>
<!-- Generator: Adobe Illustrator 26.0.3, SVG Export Plug-In . SVG Version: 6.00 Build 0)  -->
<svg version="1.1" id="Capa_1" xmlns="http://www.w3.org/2000/svg" xmlns:xlink="http://www.w3.org/1999/xlink" x="0px" y="0px"
	 viewBox="0 0 1024 1024" style="enable-background:new 0 0 1024 1024;" xml:space="preserve">
<style type="text/css">
	.st0{fill:#FFFFFF;}
</style>
<g>
	<path class="st0" d="M233.55,444.39h-5.36L28.11,483.94c46.45,2.97,118.61,6.19,193.92,4.23c19.69-0.51,39.59-1.38,59.31-2.69
		c93.96-6.29,164.86-27.03,203.59-41.08H233.55z"/>
	<path class="st0" d="M632.36,263.72c-158.95-9.8-335.02,22.16-393.5,166.37h312.31l-27.07,13.59
		c-3.74,1.88-93.33,46.12-241.87,56.06c-20.77,1.39-41.73,2.27-62.44,2.78c-0.27,2.13-0.52,4.25-0.74,6.35
		c-11.4,109.45,50.34,178.41,62.31,192.22c14.39,16.61,84.15,75.29,84.15,75.29s-0.37,68.28,21.04,98.55
		c21.41,30.27,61.27,56.84,61.27,56.84s-51.67-93.01,0.74-157.23c52.41-64.22,158.71-70.13,158.71-70.13s-67.82-33.22-109.94-30.27
		s-81.98,20.67-98.96,14.76c-16.98-5.91-63.48-25.1-62.74-79.72s14.76-78.25,81.2-76.03c66.44,2.21,161.02,34.96,259.31,33.16
		c126.97-2.32,179.61-20.9,248.17-56.6c16.29-8.48,43.36-27.38,61.53-40.13c9.48-6.65,9.97-20.53,0.97-27.81
		C932.94,398.25,766,271.96,632.36,263.72z M625.23,520.59c-1.7-1.62-3.46-3.33-4.94-5.23c-21.15-28.17-11.73-79.73,20.99-95.13
		c-13.41,22.94-19.21,47.76-19.06,73.93C622.32,502.73,623.22,511.26,625.23,520.59z M669.06,485.55c0.2,8.52,0.86,16.98,2.13,26.24
		c-1.58-1.68-3.25-3.42-4.55-5.36c-18.74-27.14-14.83-77.04,14.15-95.81C671.04,435.01,668.6,459.72,669.06,485.55z M751.57,466.73
		c-12.84,0-23.25-10.41-23.25-23.25c0-12.84,10.41-23.25,23.25-23.25c12.84,0,23.25,10.41,23.25,23.25
		C774.82,456.32,764.41,466.73,751.57,466.73z"/>
	<path class="st0" d="M651.55,253.75c0,0,0-44.34-54.62-97.81C536,96.32,478.08,92.46,478.08,92.46s26.57,29.53,25.1,87.84
		c-1.48,58.32-52.41,81.79-52.41,81.79s65.73-10.38,121.8-12.4C629.04,247.67,651.55,253.75,651.55,253.75z"/>
	<path class="st0" d="M216.27,612.6c0,0-9.98,29.94-8.65,66.77c1.33,36.83,20.53,66.77,20.53,66.77s2.38-21.18,6.6-33.32
		c5.42-15.57,12.48-26.38,12.48-26.38s-9.61-13.96-17.89-31.15C221.28,638.53,216.27,612.6,216.27,612.6z"/>
	<path class="st0" d="M353.6,590.95c0,0-3.1,17.23-1.38,35.14c1.72,17.91,6.55,25.49,6.55,25.49s11.45,6.7,26.53,7.23
		c15.48,0.55,26.87-3.1,26.87-3.1s-22.74-14.47-34.79-27.56C365.31,615.06,353.6,590.95,353.6,590.95z"/>
</g>
</svg>
