<?xml version="1.0" encoding="utf-8"?>
<!-- Generator: Adobe Illustrator 26.0.3, SVG Export Plug-In . SVG Version: 6.00 Build 0)  -->
<svg version="1.1" id="Capa_1" xmlns="http://www.w3.org/2000/svg" xmlns:xlink="http://www.w3.org/1999/xlink" x="0px" y="0px"
	 viewBox="0 0 1024 1024" style="enable-background:new 0 0 1024 1024;" xml:space="preserve">
<style type="text/css">
	.st0{fill:#FFFFFF;}
</style>
<g>
	<path class="st0" d="M680.11,369.47c-1.7-6.34-3.67-12.1-6.76-17.91c-36.83-69.21-152.92-118.45-236.16-19.06
		c-57.19,68.28-125.89,126.04-188.89,189c-10.54,10.54-21.23,20.94-32.89,32.44c0.1,0.04,0.19,0.08,0.29,0.13
		c-0.82,0.55-1.59,1.28-2.42,2.11c-47.66,47.73-121.56,121.9-169.24,169.61c-1.04,1.04-1.89,2.27-2.83,3.41
		c80.47-28.56,184.5-95.07,254.32-147.12c5.58,1.55,7.88,1.99,13.11,3.93c-55.1,33.95-113.98,96.82-167.06,127.79
		c-1.22,0.71-2.24,1.58-3.36,2.38c96.67-15.61,196.15-27.68,297.79-94.42c27.98-0.23,63.23-4.45,91.35-11.61
		c43.34-11.04,88.59-40.43,113.03-77.42C669.04,489.37,692.64,416.27,680.11,369.47z"/>
	<g>
		<g>
			<path class="st0" d="M982.27,320.25c-7.16-30.28-17.17-47.17-40.55-80.9c-19.41-28.01-48.16-50.16-66.03-62.4
				c-0.86-0.59-1.72-0.74-2.48-0.58c-12.17-34.14-39.32-61.34-71.15-73.55c-14.78-5.67-39.46-8.8-65.88-8.42
				c-47.39,0.69-94.24,18.59-130.34,49.86c-18.93,16.4-37.11,35.85-52.88,55.08c-6.43,7.84-39.75,46.78-34.97,58.74
				c0.17,0.41,0.56,0.75,0.96,0.92c2.53,1.11,3.21,1.6,3.94,1.71c29.71,4.21,70.86,3.84,101.26,20.13
				c29.82,15.97,55.82,37.91,66.48,70.84c23.85,73.67-9.28,166.25-66.53,223.18c-23.14,23.01-51.92,38.81-82.96,48.48
				c-18.52,5.77-39.73,13.02-60.07,13.96c-11.81,0.55-19.06,2.01-36.65,1.69c-4.74-0.09-7.73-0.35-11.93,2.43
				c-12.79,8.46-24.97,14.45-32.93,18.07c-3.55,1.61-24.04,10.75-27.8,13.56c-1.08,0.8-0.73,2.45,0.55,2.84
				c12.86,3.99,33.92,6.51,71.58,3.86c1.31-0.09,2.06,1.5,1.28,2.55c-1.21,1.63-2.11,2.85-3.08,4
				c-15.29,18.05-13.14,12.19-28.35,30.3c-15.93,18.97-13.83,37.29,5.32,52.78c23.88,19.31,47.54,38.89,71.09,58.59
				c0.74,0.62,1.38,1.59,1.86,2.68c0.18,0.42,0.53,0.71,0.93,0.86l17.71,23.44c-8.05,4.5-16.07,9.07-24.05,13.72
				c-4.22,2.46-6.08,8.55-3.35,12.78c2.75,4.26,8.26,5.99,12.79,3.35c12.21-7.11,24.51-14.05,36.91-20.83
				c8.59,6.37,15.2,16.54,22.57,23.8c7.75,7.64,16,14.34,25.34,19.93c8.32,4.97,24.28,14.02,26.62,18.43
				c2.15,4.06,8.66,1.06,6.49-3.03c-2.89-5.45-13.29-20.23-23.61-26.5c-16.81-10.21-12.84-11.29-26.34-25.3
				c2.07,2.14,11.34-2.26,14.45-2.07c9.85,0.6,19.8,4.09,29.35,6.41c11.82,2.87,24.1,1.74,35.9-0.61
				c11.42-2.27,22.34-5.95,34.14-4.1c5.98,0.93,18.65,6.46,20.15,8.85c0.93,1.48,2.59,2.37,4.32,1.57c1.44-0.67,2.51-2.82,1.57-4.32
				c-3.75-5.97-19.94-21.55-35.15-20.97c-6.06,0.23-11.86,2.11-17.73,3.44c-6.07,1.38-11.53,1.3-17.7,0.61
				c-9.47-1.05-18.83-3.11-27.86-6.12c-9.12-3.04-17.66-7.49-27.15-9.4c11.26-1.88,26.46-6.86,34.36-8.18
				c6.49-1.08,4.79-11.17-1.71-10.08c-12.21,2.04-36,4.41-53.41,6.68c-6.69,0.88-5.81-2.13-12.42-4.01
				c-6.28-1.79-6.93-3.61-12.14-7.36c-32.36-26.6-64.35-52.9-96.64-79.44c-0.68-0.56-0.78-1.58-0.21-2.26
				c6.5-7.87,12.63-15.47,18.97-22.89c17.25-20.2,17.01-16.52,34.41-36.58c1.36-1.57,3.49-3.04,5.48-3.41
				c21.59-4.06,43.23-7.9,64.88-11.78c1.43-0.25,9.35-1.88,8.72-0.57c-2.02,4.23-6.82,12.65-9.16,16.72
				c-5.39,9.35-5.97,11.73-11.98,20.64c-10.36,15.36-10.03,33.2,4.24,45.56c3.54,3.06,20.88,21.2,27.33,26.58
				c0.85,0.71,1.52,1.18,2.15,1.72c-7.51,3.58-15.02,7.17-22.53,10.75c-2.01,0.96-3.72,3.51-4.29,5.58
				c-0.62,2.24-0.34,5.22,0.94,7.2c2.93,4.55,8.05,5.61,12.79,3.35c10.46-4.99,20.93-9.98,31.39-14.98
				c10.73,8.06,21.32,16.33,31.84,24.66c13.99,11.07,27.82,22.36,41.5,33.83c3,2.52,7.97,1.3,10.11-1.71
				c2.42-3.41,1.29-7.58-1.71-10.11c-21.59-18.12-17.45-18.01-39.85-35.13c7.65,1.27,6.32,1.89,13.37,5
				c11.85,5.23,14.48,5.57,26.72,9.89c9.26,3.26,21.61,6.27,34.31,8.94c10.84,2.28,24.31-1.77,33.98-0.04
				c11.73,2.1,18.97,9.84,23.46,10.97c1.73,0.43,3.58-0.12,4.26-1.92c0.57-1.52-0.19-3.82-1.92-4.26
				c-5.2-1.31-13.11-21.73-30.45-21.07c-30.65,1.18-49.67-9.37-69.6-17.05c-10.43-4.02-20.72-9.09-31.11-13.63
				c1.51,0.47,3.02,0.93,4.54,1.32c6.28,1.61,12.17,2.06,18.61,1.21c10.23-1.35,22.73,2.98,28.48,5.28
				c2.85,1.14,6.98,0.63,7.83-2.32c0.8-2.77-1.87-5.26-4.37-6.68c-12.27-6.92-42.59-10.16-63.27-14.89
				c-8.49-1.94-16.25-1.74-24.71-1.59c-3.13-2.62-6.43-5.45-9.84-8.62c-12.37-11.51-15.17-14.74-28.5-25.77
				c-0.66-0.54-0.77-1.51-0.26-2.19c1.72-2.32,3.24-4.46,4.9-6.48c11.18-13.51,21.47-27.75,30.6-42.72
				c5.72-9.37,10.76-19.12,16.36-28.56c5.67-9.57,15.5-15.99,24.58-22.07c71.66-48.01,146.73-91.05,181.26-175.05
				c13.54-32.93,11.52-69.86,7.87-104.52c-0.3-2.88-0.78-7.13-1.17-11.89c0.77,0.53,1.72,0.84,2.74,0.84
				c9.22-0.01,34.59-0.19,61.29-1.82c23.05-1.41,43.92-2.95,56.72-4.17c9.97-0.95,18.47-2.24,21.42-3.05
				C981.34,321.97,982.7,322.06,982.27,320.25z M839.83,207.2c-1.45,8.42-9.81,14.39-18.24,13.02c-8.38-1.36-14.41-9.78-13.06-18.23
				c1.31-8.2,10.11-14.46,18.26-13C835.33,190.52,841.27,198.83,839.83,207.2z"/>
		</g>
	</g>
</g>
</svg>
