<?xml version="1.0" encoding="utf-8"?>
<!-- Generator: Adobe Illustrator 26.0.3, SVG Export Plug-In . SVG Version: 6.00 Build 0)  -->
<svg version="1.1" id="Capa_1" xmlns="http://www.w3.org/2000/svg" xmlns:xlink="http://www.w3.org/1999/xlink" x="0px" y="0px"
	 viewBox="0 0 1024 1024" style="enable-background:new 0 0 1024 1024;" xml:space="preserve">
<style type="text/css">
	.st0{fill:#FFFFFF;}
</style>
<path class="st0" d="M974.94,759.22c-44.76-10.12-101.93-25.35-140.39-43.99c-28.9-14-46.14-35.81-56.45-56.86
	c1.63-2.71,3.19-5.45,4.69-8.21c39.63-73.07,35.91-229.26,20.88-301.93c-15.04-72.67,25.06-88.96,62.65-122.79
	c37.59-33.83,45.11-93.97,32.58-103.99c-12.53-10.02-59.3,7.06-94.39,12.07c-35.08,5.01-104.95,7.87-160.95,67.39
	c-43.58,46.33-84.76,172.74-124.69,247.42c-39.93,74.68-157.91,129.46-206.71,149.42c-48.8,19.96-111.08,60.4-135.48,93.68
	c-24.4,33.27-54.91,64.46-54.91,64.46H37.8c-8.26,0-13.94,8.33-10.85,15.99c0.98,2.44,2.16,5.07,3.51,7.78l74.02,6.76l-66.46,6.07
	c2.29,3.28,4.88,6.53,7.8,9.64l75.29,5.25l-60.73,6.87c4.64,2.95,9.79,5.51,15.55,7.43c44.36,14.79,97.6-0.74,97.6-0.74
	s9.61,17.01,34.75,42.15c23.59,23.59,67.35,43.92,109.92,48.78l-45.25-40.16l64.81,41.07c12.01-0.29,24.38-2.1,36.04-4.58
	l-58.75-37.17l76.76,32.73c0.8-0.22,1.64-0.44,2.42-0.66c11.55-3.32,12.37-19.34,1.18-23.71c-14.18-5.54-30.34-12.56-42.96-20
	c-28.84-17.01-74.68-70.61-74.68-70.61s75.35,12.86,222.93,13.31c45.37,0.14,89.54-8.85,129.56-24.68
	c1.28-19.83,4.07-56.11,9.08-90.67c7.39-51.02,19.22-79.49,19.22-79.49s-0.01,0.07-0.02,0.18c-0.05,0.36-0.09,0.76-0.14,1.13
	c-0.75,6.3-3.82,35.1-1.36,63.57c0.12,1.23,0.2,2.45,0.35,3.69c0.05,0.4,0.09,0.8,0.14,1.2c0.04,0.39,0.09,0.77,0.13,1.16
	c0.71,5.7,1.67,11.49,2.87,17.35c4.76,22.29,12.57,40.28,17.15,49.63c0.47,0.94,0.92,1.88,1.41,2.82c0.73,1.4,1.48,2.8,2.25,4.2
	c6.86,12.33,15.4,24.51,26.01,36.24c56.19,62.11,135.5,57.17,212.21,40.67c0.35-0.08,0.7-0.17,1.05-0.25l-75.87-26.39l100.5,19.39
	c10.7-3.64,21.25-7.93,31.27-12.46l-87.01-32.89l101.17,22.33C1000.04,784.95,993.93,763.51,974.94,759.22z M679.59,267.95
	c-1.04,6.82-3.96,14.35-10.29,18.72c-6.7,4.82-16.13,5.17-22.86-0.19c-4.13-3.14-6.42-8.56-7.15-13.2
	c-1.44-8.29-1.6-16.59-1.36-25.06c0,0,1.77,6.66,1.77,6.68c1.05,3.96,2.23,8.17,3.65,12.01c1.36,3.66,3.62,6.94,6.23,9.9
	c2.62,2.98,6.4,4.48,10.32,3.64c7.24-1.22,10.83-8.55,13-14.48c2.55-7.65,4.98-17.52,6.68-25.79
	C681.95,248.31,680.72,259.6,679.59,267.95z M776.95,173.51c8.62,0,15.6,6.99,15.6,15.6c0,8.62-6.98,15.6-15.6,15.6
	c-8.62,0-15.6-6.98-15.6-15.6C761.35,180.49,768.33,173.51,776.95,173.51z"/>
</svg>
