<?xml version="1.0" encoding="utf-8"?>
<!-- Generator: Adobe Illustrator 26.0.3, SVG Export Plug-In . SVG Version: 6.00 Build 0)  -->
<svg version="1.1" id="Capa_1" xmlns="http://www.w3.org/2000/svg" xmlns:xlink="http://www.w3.org/1999/xlink" x="0px" y="0px"
	 viewBox="0 0 1024 1024" style="enable-background:new 0 0 1024 1024;" xml:space="preserve">
<style type="text/css">
	.st0{fill:#FFFFFF;}
</style>
<g>
	<path class="st0" d="M744.42,199.88c1.04-1.49,2.13-3.04,3.26-4.65c-3.27-1.3-6.75-2.44-10.04-3.21
		c-8.39-2.11-17.18-3.32-25.49-4.16c-13.19-1.15-26.48-1.93-39.59-0.49c12.02,5.01,23.23,12,34.17,19.23
		c6.08,4.1,11.78,8.35,17.22,12.96c1.33,1.18,3.05,2.73,4.65,4.38c4.73-7.63,9.67-15.26,14.89-22.71L744.42,199.88z"/>
	<path class="st0" d="M710.88,253.93c0.44-0.77,0.89-1.55,1.33-2.33c-10.57-6.28-22.71-9.93-34.09-13.09
		c-12.9-3.29-25.93-6.24-39.1-6.95c5.71,3.43,10.98,7.47,16.18,11.61c10.09,8.17,20.12,17.16,28.8,26.85
		c2.33,2.65,5.65,6.47,7.66,10.01C698.81,272.32,705.16,263.96,710.88,253.93z"/>
	<path class="st0" d="M786.27,152.61c-0.85-0.4-1.65-0.72-2.35-0.93c-11.24-3.95-23.47-4.64-34.98-5.26
		c-12.51-0.3-25.16-0.46-37.44,1.99c5.87,1.96,11.35,4.76,16.79,7.65c11.37,6.22,22.71,13.17,32.83,21.43
		C768.04,169.13,776.28,160.49,786.27,152.61z"/>
	<path class="st0" d="M830.72,128.2c-0.7-0.67-1.37-1.26-1.98-1.7c-9.57-7.63-21-12.52-31.77-17.08
		c-11.8-4.61-23.78-9.13-36.14-11.04c5.03,3.89,9.45,8.44,13.82,13.07c9.06,9.84,17.89,20.36,25.19,31.71
		C808.75,137.61,819.01,132.25,830.72,128.2z"/>
	<path class="st0" d="M672.27,298.39c-3.66-3.69-8.02-6.54-12.47-8.8c-7.88-3.92-16.43-6.79-24.52-9.12
		c-11.58-3.16-23.29-5.95-35.13-6.69c9.7,6.86,18.34,15.33,26.66,23.98c6.28,6.86,12.28,13.39,16.8,21.54
		c0.06,0.15,0.16,0.41,0.28,0.69c5.76-3.54,11.35-7.45,16.75-11.88C664.71,304.77,668.58,301.56,672.27,298.39z"/>
	<path class="st0" d="M607.37,324c-7.12-5.42-15.07-9.94-22.65-13.84c-10.88-5.4-21.96-10.48-33.49-13.55
		c8.44,8.68,15.58,18.72,22.36,28.88c4.36,6.88,8.55,13.47,11.63,20.86c10.94-4.1,21.63-8.12,31.97-12.63
		C614.37,329.98,610.94,326.77,607.37,324z"/>
	<path class="st0" d="M555.96,357.59c-0.15-0.19-0.3-0.38-0.46-0.56c-1.17-1.15-2.55-2.52-3.75-3.53
		c-7.79-6.36-16.74-11.17-25.33-15.56c-10.27-4.93-20.6-9.96-31.58-12.41c7.93,8.11,14.15,17.93,20.32,27.61
		c3.34,5.55,6.59,10.98,9.3,16.73c9.77-3.83,19.5-7.61,29.18-11.38C554.42,358.19,555.19,357.89,555.96,357.59z"/>
	<path class="st0" d="M496.77,376.07c-0.12-0.14-1.18-1.08-1.3-1.22c-7.59-6.98-17.33-11.14-26.26-14.86
		c-9.58-3.71-19.31-7.06-29.28-8.68c7.1,7.37,13.1,15.88,18.75,24.52c3.42,5.55,6.77,10.85,9.11,16.76
		c10.64-4.4,21.28-8.7,31.9-12.94C498.74,378.42,497.77,377.23,496.77,376.07z"/>
	<path class="st0" d="M441.78,399.19c-7.61-6.65-16.78-10.78-25.43-14.83c-9.4-4.01-18.86-8.12-28.82-9.88
		c6.96,7.46,12.35,16.41,17.71,25.22c3.05,5.33,6.12,10.7,8.47,16.27c10.3-4.68,20.65-9.24,31.02-13.68
		C443.84,401.18,442.91,400.14,441.78,399.19z"/>
	<path class="st0" d="M415.66,423.26c-0.22,0.13-0.33,0.21-0.33,0.21C415.42,423.42,415.54,423.35,415.66,423.26z"/>
	<path class="st0" d="M383.27,426.68c-7.5-6.52-16.83-10.47-25.45-14.24c-9.33-3.73-18.79-7.45-28.57-9.06
		c6.88,7.33,12.35,16.02,17.73,24.64c3.25,5.54,6.45,10.89,8.84,16.71c9.61-5.61,19.49-10.57,29.89-15.61
		C384.95,428.24,384.15,427.41,383.27,426.68z"/>
	<path class="st0" d="M357.49,450.69c0-0.02,0-0.06-0.01-0.09c-0.02,0.02-0.62,0.38-0.62,0.38
		C357.04,450.96,357.3,450.82,357.49,450.69z"/>
	<path class="st0" d="M311.58,456.3c-12.84-5.9-25.96-9.91-39.61-11.61c6.1,6.72,11.19,14.41,15.95,22.21
		c2.83,4.82,5.41,9.42,7.3,14.44c0.33,0.92,0.68,1.83,0.83,2.65l0.29,1.23c0.01,0.29,0,0.55,0,0.8c10.11-5.89,19.74-13,28.77-19.97
		C321.24,461.54,316.64,458.79,311.58,456.3z"/>
	<path class="st0" d="M296.31,486.7c-0.42,0.26-0.66,0.41-0.66,0.41C295.82,487.02,296.18,486.99,296.31,486.7z"/>
</g>
<g>
	<path class="st0" d="M949.11,349.32c31.99-12.89,58.98-40.99,63.22-79.85c2.35-21.54-1.14-40-8.78-55.6
		c-34.31-69.99-129.82-84.07-192.06-59.47c-27.4,10.82-44.54,39.4-61.68,63.91c-11.59,16.57-22.01,34.21-32.13,51.96
		c-13.9,24.38-31.53,39.63-52.39,56.74c-27.42,22.49-59.7,32.54-91.48,44.79c-61.44,23.96-122.62,47.16-182.39,75.97
		c-19.77,9.53-37.91,18.7-55.39,32.33c-17.66,13.77-36.38,28.18-57.11,35.55c-44.62,15.85-182.24,12.74-194.4-93.33
		c-9.19-80.13,87.97-152.62,115.06-170.92c15.4-10.4,72.4-40.4,72.4-40.4s-12.56,0.84-24.71,1.06
		c-36.23,0.66-78.39,10.66-111.37,33.06c-33.37,22.66-62.64,49.53-81.71,86.2c-32.81,63.08-44.95,159.2,7.63,215.45
		c45.16,48.32,119.21,63.32,182.39,70.09c7.86,0.84,49.94-1.79,52.3,9.68c3.16,15.38-10.85,24.61-20.98,31.13
		c-13.47,8.68-24.38,19.17-36.15,30.46c-1.89,1.81-3.8,3.6-5.73,5.37c-4.26,3.9-5.05,8.21-1.09,13.47c11.29,15,22.63,28.33,37,39.97
		c1.77,1.44,3.58,3,4.53,5.2c2.12,4.89-3.16,10.59-5.61,14.18c-2.98,4.37-6.41,8.47-11.03,10.7c-12.76,6.15-22.94,15.54-28.95,29.78
		c-3.2,7.59-1.88,13.77,3.32,16.52c5.24,2.77,10.45,0.17,13.7-7.19c6.4-14.5,18-20.39,31.61-24.63
		c6.73,30.35,13.5,59.79,14.03,90.43c0.19,10.78-0.17,21.58-0.26,32.37c-0.05,6.16,2.54,10.19,8.13,10.85
		c5.93,0.71,9.42-2.71,10.42-9.18c0.34-2.18,0.69-4.42,0.56-6.6c-1.5-25.07-2.62-50.18-4.96-75.15c-0.7-7.5,0.51-10.66,8-11.86
		c4.56,12.23,9.98,24.15,13.47,36.73c4.67,16.86,7.96,34.2,11.63,51.39c1.42,6.68,4.67,10.53,10.97,9.53c6-0.95,8.2-5.63,7.68-12.03
		c-0.2-2.47-0.51-4.94-0.91-7.39c-5.2-31.44-14.16-61.47-27.6-89.68c4.61-3.99,4.41-3.73,8.28-0.01
		c17.12,16.44,34.35,32.73,51.57,49.05c1.44,1.36,3.01,2.55,4.6,3.89c-1.05,1.61-1.75,2.74-2.51,3.82
		c-3.89,5.53-4.68,11.11,0.43,16.17c4.47,4.43,9.98,3.01,14.74-3.54c3.13-4.31,6.25-8.64,9.11-13.17
		c4.42-6.98,3.18-13.41-3.62-17.13c-23.7-12.97-42.33-32.93-60.48-53.56c-0.86-0.98-1.17-2.54-1.74-3.84
		c0.26-0.62,0.52-1.25,0.78-1.87c23.08,11.45,47.29,14.33,71.64,12.5c0.64,1.16,1.11,1.62,1.13,2.1c0.14,5.25,0.31,10.51,0.27,15.76
		c-0.05,6.89,2.78,11.19,9,11.9c5.62,0.64,9.58-4.15,9.78-11.86c0.24-9.13,0.2-18.27,0.04-27.4c-0.19-10.91-3.85-14.35-13.81-12.76
		c-16.96,2.7-34.37,2.49-51.05-2.13c-17.22-4.77-34.51-13.28-47.73-26.65c-9.45-9.56-23.54-33.14-9.81-45.46
		c25.94-23.27,66.46-28.67,95.27-47.21c5.92-3.81,9.63-7.85,11.31-12.36c0.51-1.02,10.51,0.78,11.52,0.87
		c7.21,0.68,14.41,1.4,21.61,2.12c76.95,7.62,157.73,5.24,232.31-22.09c44.97-16.48,72.14-19.12,102.52-58.04
		c0.31,16.45,9.67,39.19,15.66,53.41c8.58,20.4,11.3,20.9,18.85,41.74c7.19,19.83,16.38,38.76,24.86,57.92
		c3.14,7.08,2.02,11.92-2.73,15.77c-3.42,2.77-7.95,4.33-12.19,5.25c-10.24,2.21-21.07,2.24-30.8,5.94
		c-9.4,3.58-18.07,10.09-26.39,16.39c-4.73,3.58-4.58,9.82-0.73,14.68c3.67,4.62,8.72,5.08,12.7,1.02
		c14.39-14.66,32.22-15.98,50.27-17.17c5.29-0.35,7.82,1.5,9.91,7.07c12.4,33.08,23.12,66.61,26.27,102.6
		c0.7,8.04,6.46,12.48,12.38,9.99c5.56-2.34,7.4-7.48,6.22-13.45c-4.53-22.92-9.17-45.82-14.19-68.61
		c-1.16-5.26-1.66-9.07,4.13-11.1c1.16,1.25,2.55,2.42,3.57,3.9c14.46,21.09,28.98,42.12,43.24,63.39
		c5.25,7.83,10.07,10.12,15.4,6.04c4.99-3.82,5.61-9.89,0.49-17.44c-15.84-23.38-32.05-46.45-48.09-69.66
		c-0.56-0.81-0.85-1.86-1.16-2.56c2.71-5.44,5.24-3.29,8.62-1.13c16.37,10.49,32.63,21.29,49.58,30.51
		c7.92,4.3,14.42,6.8,11.59,18.97c-1.47,6.32,3.19,10.47,8.77,10.94c5.41,0.46,8.95-3.14,9.68-9.26c0.75-6.3,1.1-12.66,1.72-18.98
		c0.74-7.47-1.96-11.8-8.64-14.07c-21.4-7.29-40.73-19.33-59.27-33.03c-1.51-1.12-2.78-2.65-4.26-4.1
		c19.08,0.62,37.59,1.23,56.72,1.85c0.18,1.11,0.6,3.81,1.09,6.5c1.24,6.74,5.05,10.44,11.15,9.3c5.82-1.08,8.1-6,7.5-12.33
		c-0.47-4.95-1.3-9.85-1.98-14.78c-1.77-12.85-5.07-15.33-16.76-12.56c-21.19,5.02-42.12,3.84-62.7-3.61
		c-9.44-3.41-9.26-16.07-10.33-25.02c-2.03-17.04-6.66-45.57-7.39-62.78c-1.87-44.01-4.52-75.59-8.89-120.89
		c-3.21-33.34,0.81-74.29-13.03-105.25c2.86-4.84,5.95-9.54,9.4-14.04C901.16,378.61,923.64,359.58,949.11,349.32z M907.09,195.73
		c9.12,0,16.52,7.4,16.52,16.52s-7.4,16.52-16.52,16.52s-16.52-7.4-16.52-16.52S897.97,195.73,907.09,195.73z"/>
</g>
</svg>
